<svg id="Capa_1" enable-background="new 0 0 510.431 510.431" height="512" viewBox="0 0 510.431 510.431" width="512" xmlns="http://www.w3.org/2000/svg"><g><g><g><g><path d="m293.14 254.575c-.433-116.161-66.506-173.809-140.421-243.969-27.542 23.58-88.179 90.99-88.179 90.99-75.651 97.098-69.343 239.799 20.993 329.75 0 0 67.197 67.198 67.197 67.198 73.772-70.586 140.843-127.808 140.41-243.969z" fill="#6ad34d"/></g><g><path d="m293.14 254.575c-.019-5.129-.173-10.138-.443-15.045-5.867 104.909-69.889 159.906-139.967 226.958 0 0-26.823-26.823-46.575-46.575-94.462-92.659-92.174-251.531 6.595-339.724-.003 0 56.083-53.468 56.083-53.468l-16.114-16.114c-83.392 80.01-132.071 126.402-139.827 227.953-4.845 70.776 22.027 142.95 72.641 192.786 0 0 67.197 67.198 67.197 67.198 72.813-69.59 141.105-127.948 140.41-243.969z" fill="#31a469"/></g><g><path d="m498.383 157.278c-36.149-2.802-126.692 1.988-126.692 1.988-31.164 3.869-60.647 13.621-87.285 28.101 5.536 20.191 8.641 42.357 8.733 67.209.431 115.826-66.252 173.053-139.773 243.36v4.374c98.844-.696 189.964 9.217 271.797-73.227 81.833-82.445 75.876-169.929 73.22-271.805z" fill="#6ad34d"/></g><g><path d="m499.555 206.469c7.037 164.643-125.728 284.769-288.035 271.443 78.949-73.104 128.394-178.842 92.937-300.298 0 0 6.073-4.44-20.05 9.753 29.605 119.478-27.594 213.816-108.175 289.94-.398-.01-15.552 13.637-22.864 20.629v5.375c9.242-2.305 110.32 1.791 153.912-7.987h-.001c134.137-28.751 203.805-163.246 192.276-288.855z" fill="#31a469"/></g><g><path d="m145.23 119.329h15v15h-15z" fill="#fff"/></g><g><path d="m145.225 89.329h15v15h-15z" fill="#fff"/></g><g><path d="m408.059 232.113h15v15h-15z" fill="#fff" transform="matrix(.707 -.707 .707 .707 -47.718 364.026)"/></g><g><path d="m429.268 210.896h15v15h-15z" fill="#fff" transform="matrix(.707 -.707 .707 .707 -26.503 372.808)"/></g></g></g><g><path d="m205.225 494.956h15v15h-15z"/><path d="m402.717 149.923c-39.593 0-78.823 9.177-114.08 26.6-16.772-67.867-88.314-128.392-135.918-176.523-19.084 20.03-81.845 78.955-96.902 100.674l12.017 8.979c13.827-19.974 67.457-70.193 84.886-88.44 69.846 66.237 135.076 129.412 132.92 233.362h15c0-21.657-2.662-42.904-7.819-63.372 55.079-32.135 135.813-26.262 197.411-26.28v87.532c.392 138.506-117.078 248.995-255.008 242.5v15c142.812 9.111 273.135-114.038 270.005-257.503.002.003.002-102.53.002-102.53h-102.514z"/><path d="m223.972 441.807h92.773v-15h-77.773l48.64-48.64h92.773v-15h-77.773l48.636-48.636h75.649v-15h-60.649l38.705-38.705-10.606-10.606-38.5 38.5v-60.237h-15v75.237l-68.783 68.783c16.312-31.649 26.008-66.578 28.132-102.734l-14.975-.88c-3.252 92.355-61.766 152.123-124.99 211.548v-75.164l65.601-65.601-10.606-10.606-54.994 54.994v-68.787l65.601-65.601-10.606-10.606-54.994 54.994v-68.78l53.492-53.492-10.606-10.606-42.885 42.885v-54.738h-15v54.447l-42.594-42.594-10.61 10.606 53.201 53.201v68.781l-54.703-54.703-10.606 10.606 65.31 65.31v68.787l-54.703-54.703-10.606 10.606 65.31 65.31v75.455l-54.395-54.395c-80.934-80.931-94.123-208.98-31.363-304.473l-12.535-8.238c-66.626 98.399-52.191 240.375 33.292 323.317-.002 0 72.485 72.488 72.485 72.488v.819h37.508v-15h-19.401z"/></g></g></svg>