<svg height="512pt" viewBox="0 0 512 512" width="512pt" xmlns="http://www.w3.org/2000/svg"><path d="m512 256c0 141.386719-114.613281 256-256 256s-256-114.613281-256-256 114.613281-256 256-256 256 114.613281 256 256zm0 0" fill="#2d5396"/><path d="m512 256c0-4.410156-.113281-8.792969-.332031-13.144531l-140.890625-140.890625-3.925782 2.710937-20.347656-20.351562-15.003906 46.175781-51.222656-50.625-4.3125 2.328125-19.964844-19.964844-15.003906 46.175781 29.714844 29.714844-15.878907 28.890625-65.058593-65.054687-4.703126 1.933594-19.570312-19.574219-15.003906 46.175781 63.011718 63.011719-.457031 49.535156-80.609375-80.609375-4.703125 1.933594-19.460937-19.570313-15.003906 46.175781 95.738281 95.804688-15.667969 28.503906-64.792969-64.734375-4.480469 1.933594-19.792968-19.570313-15.003906 46.175782 61.402343 61.3125-1.761719 1.261718-20.636718-20.640624-15.003906 46.175781 144.121093 144.125c6.144531.441406 12.347657.675781 18.605469.675781 141.386719 0 256-114.613281 256-256zm0 0" fill="#1b3b6b"/><path d="m256 62.238281 7.503906 15.199219 16.773438 2.4375-12.140625 11.832031 2.867187 16.707031-15.003906-7.886718-15.003906 7.886718 2.867187-16.707031-12.140625-11.832031 16.773438-2.4375zm0 0" fill="#ffe000"/><path d="m280.277344 79.875-16.773438-2.4375-7.503906-15.199219v38.289063l15.003906 7.886718-2.867187-16.707031zm0 0" fill="#ffc200"/><path d="m256 405.824219 7.503906 15.199219 16.773438 2.4375-12.140625 11.832031 2.867187 16.707031-15.003906-7.886719-15.003906 7.886719 2.867187-16.707031-12.140625-11.832031 16.773438-2.4375zm0 0" fill="#ffe000"/><g fill="#ffc200"><path d="m280.277344 423.460938-16.773438-2.4375-7.503906-15.199219v38.289062l15.003906 7.886719-2.867187-16.707031zm0 0"/><path d="m427.722656 232.914062 7.503906 15.199219 16.773438 2.4375-12.136719 11.832031 2.863281 16.703126-15.003906-7.886719-15 7.886719 2.863282-16.703126-12.136719-11.832031 16.773437-2.4375zm0 0"/><path d="m403.722656 144.800781 7.503906 15.199219 16.773438 2.4375-12.136719 11.832031 2.863281 16.707031-15.003906-7.890624-15 7.890624 2.863282-16.707031-12.136719-11.832031 16.773437-2.4375zm0 0"/><path d="m403.722656 321.023438 7.503906 15.203124 16.773438 2.433594-12.136719 11.832032 2.863281 16.707031-15.003906-7.886719-15 7.886719 2.863282-16.707031-12.136719-11.832032 16.773437-2.433594zm0 0"/><path d="m346.503906 84.324219 7.5 15.203125 16.773438 2.4375-12.136719 11.828125 2.863281 16.707031-15-7.886719-15.007812 7.886719 2.867187-16.707031-12.136719-11.828125 16.773438-2.4375zm0 0"/><path d="m344.503906 379.324219 7.5 15.203125 16.773438 2.4375-12.136719 11.828125 2.863281 16.707031-15-7.886719-15.007812 7.886719 2.867187-16.707031-12.136719-11.828125 16.773438-2.4375zm0 0"/></g><path d="m108.277344 144.800781-7.503906 15.199219-16.773438 2.4375 12.136719 11.832031-2.863281 16.707031 15.003906-7.890624 15 7.890624-2.863282-16.707031 12.136719-11.832031-16.773437-2.4375zm0 0" fill="#ffe000"/><path d="m108.277344 321.023438-7.503906 15.203124-16.773438 2.433594 12.136719 11.832032-2.863281 16.707031 15.003906-7.886719 15 7.886719-2.863282-16.707031 12.136719-11.832032-16.773437-2.433594zm0 0" fill="#ffe000"/><path d="m165.496094 84.324219-7.5 15.203125-16.773438 2.4375 12.136719 11.828125-2.863281 16.707031 15-7.886719 15.007812 7.886719-2.867187-16.707031 12.136719-11.828125-16.773438-2.4375zm0 0" fill="#ffe000"/><path d="m167.496094 379.324219-7.5 15.203125-16.773438 2.4375 12.136719 11.828125-2.863281 16.707031 15-7.886719 15.007812 7.886719-2.867187-16.707031 12.136719-11.828125-16.773438-2.4375zm0 0" fill="#ffe000"/><path d="m84.277344 232.914062 7.5 15.199219 16.773437 2.4375-12.136719 11.832031 2.863282 16.703126-15-7.886719-15.003906 7.886719 2.863281-16.703126-12.136719-11.832031 16.773438-2.4375zm0 0" fill="#ffe000"/><path d="m329.964844 253.554688h-35v-46.121094c0-21.484375-17.480469-38.960938-38.964844-38.960938s-38.964844 17.476563-38.964844 38.960938v46.121094h-35v-46.121094c0-40.78125 33.183594-73.960938 73.964844-73.960938s73.964844 33.179688 73.964844 73.960938zm0 0" fill="#65b1fc"/><path d="m256 133.472656v35c21.484375 0 38.964844 17.476563 38.964844 38.960938v46.121094h35v-46.121094c0-40.78125-33.179688-73.960938-73.964844-73.960938zm0 0" fill="#4a98f7"/><path d="m165.496094 239.15625h181.003906v128.042969h-181.003906zm0 0" fill="#abddff"/><path d="m256 239.15625h90.503906v128.042969h-90.503906zm0 0" fill="#78beff"/><path d="m240.277344 280.289062h31.445312v56.585938h-31.445312zm0 0" fill="#4a98f7"/><path d="m256 280.289062h15.722656v56.585938h-15.722656zm0 0" fill="#4a7aff"/></svg>