<svg id="Capa_1" enable-background="new 0 0 512 512" height="512" viewBox="0 0 512 512" width="512" xmlns="http://www.w3.org/2000/svg"><g><g><path clip-rule="evenodd" d="m102.455 315.844c14.106 234.915 316.243 188.656 307.09 0l-8.545-44.492c-34.527-89.534-245.336-76.499-290.001 0z" fill="#ffe177" fill-rule="evenodd"/></g><g><path clip-rule="evenodd" d="m111 271.352-4.866 25.345h235.256c14.512 0 17.061.811 17.64 17.785 1.622 47.823-19.957 73.95-19.812 74.385 2.433 7.01 3.737 14.512 3.737 22.333v11.326c0-10.573 8.661-19.233 19.262-19.233h7.125v-38.959c0-11.239 3.823-21.667 10.225-29.98 3.041-3.939 6.633-7.415 10.717-10.283 3.939-2.81 8.313-5.04 12.976-6.604 2.057-.666 4.142-1.217 6.285-1.622l-2.23-11.615-6.315-32.878-82.261-50.14c-15.612 17.003-37.973 27.692-62.739 27.692-6.343 0-12.513-.695-18.48-2.028-17.292-3.853-32.644-13.006-44.259-25.664z" fill="#ffd15b" fill-rule="evenodd"/></g><g><path clip-rule="evenodd" d="m238.042 342.174c-37.945 0-68.995 31.081-68.995 69.026v11.326 12.919 44.753h173.908v-44.753-12.919-11.326c0-37.946-31.051-69.026-68.995-69.026z" fill="#ffe5c2" fill-rule="evenodd"/></g><g><path clip-rule="evenodd" d="m181.183 72.181-43.303-8.892-25.982 8.892-26.648 61.901 47.097 11.818 48.836-11.818v-24.969z" fill="#b87d72" fill-rule="evenodd"/></g><g><path clip-rule="evenodd" d="m383.389 33.425c-10.398-24.187-21.115-25.925-42.144-25.925l-10.428 64.681h69.285z" fill="#ffbd86" fill-rule="evenodd"/></g><g><path clip-rule="evenodd" d="m132.434 334.353c-3.041-3.939-6.633-7.415-10.688-10.283-8.052-5.735-17.872-9.095-28.444-9.095-27.169 0-49.357 22.217-49.357 49.358v49.387h98.714v-49.387c0-11.239-3.824-21.666-10.225-29.98z" fill="#b87d72" fill-rule="evenodd"/></g><g><path clip-rule="evenodd" d="m468.084 364.333c0-27.141-22.216-49.358-49.386-49.358-10.543 0-20.363 3.36-28.415 9.095-4.084 2.868-7.676 6.344-10.717 10.283-6.401 8.313-10.225 18.741-10.225 29.98v49.387h98.743z" fill="#b87d72" fill-rule="evenodd"/></g><g><path clip-rule="evenodd" d="m171.537 195.953-46.895-17.322-66.07 17.322c-25.055 49.764 34.092 75.92 59.379 75.92h13.816 40.986l20.507-29.777c4.694-17.177 2.289-34.672-21.723-46.143z" fill="#b87d72" fill-rule="evenodd"/></g><g><path clip-rule="evenodd" d="m453.456 195.953h-112.993c-2.375 17.64-10.196 33.601-21.724 46.143l20.507 29.777h40.986 13.816c25.316 0 84.434-26.156 59.408-75.92z" fill="#b87d72" fill-rule="evenodd"/></g><g><path clip-rule="evenodd" d="m426.75 134.082h-85.506v50.459c0 3.852-.261 7.676-.782 11.413h112.994c-.087-.145-.145-.29-.232-.434z" fill="#ffbd86" fill-rule="evenodd"/></g><g><path clip-rule="evenodd" d="m400.102 72.181h-58.857l-10.428 36.932 10.428 24.969h85.505z" fill="#b87d72" fill-rule="evenodd"/></g><g><path clip-rule="evenodd" d="m345.184 33.859 16.51 38.322h38.408l-16.713-38.757c-10.398-24.186-21.115-25.924-42.144-25.924l-4.634 9.385 4.634 8.922c1.332 2.346 2.636 5.011 3.939 8.052z" fill="#f6a96c" fill-rule="evenodd"/></g><g><path clip-rule="evenodd" d="m361.897 72.616 26.445 61.466h38.408l-26.648-61.901h-38.408z" fill="#ab695d" fill-rule="evenodd"/></g><g><path clip-rule="evenodd" d="m388.545 134.516 26.475 61.437h38.436l-.231-.434-26.475-61.437h-38.408z" fill="#f6a96c" fill-rule="evenodd"/></g><g><path clip-rule="evenodd" d="m415.222 196.388c23.172 46.085-25.779 71.923-53.238 75.486h18.248 13.816c25.316 0 84.434-26.156 59.408-75.92h-38.436z" fill="#ab695d" fill-rule="evenodd"/></g><g><path clip-rule="evenodd" d="m145.179 72.181v36.932 24.969l18.016 11.818 17.988-11.818v-24.969-36.932l-17.611-14.628z" fill="#ab695d" fill-rule="evenodd"/></g><g><path clip-rule="evenodd" d="m145.961 195.953c2.375 17.64 10.196 33.601 21.724 46.143l-20.507 29.777h25.576l20.507-29.777c-11.499-12.542-19.349-28.503-21.724-46.143l-8.342-10.457z" fill="#ab695d" fill-rule="evenodd"/></g><g><path clip-rule="evenodd" d="m403.26 317.466c19.638 6.517 33.918 25.114 33.918 46.867v49.387h7.125 23.781v-49.387c0-27.141-22.216-49.358-49.386-49.358-5.387 0-10.572.869-15.438 2.491z" fill="#ab695d" fill-rule="evenodd"/></g><g><path clip-rule="evenodd" d="m77.834 317.466c19.667 6.517 33.918 25.114 33.918 46.867v49.387h7.154 23.752v-49.387c0-27.141-22.216-49.358-49.357-49.358-5.387 0-10.6.869-15.467 2.491z" fill="#ab695d" fill-rule="evenodd"/></g><g><path clip-rule="evenodd" d="m468.084 403.293h-98.743-7.125c-10.601 0-19.262 8.661-19.262 19.233v12.919 44.753 24.302h151.488v-81.974c0-10.573-8.661-19.233-19.233-19.233z" fill="#ffbd86" fill-rule="evenodd"/></g><g><path clip-rule="evenodd" d="m461.219 422.526v81.974h33.223v-81.974c0-10.573-8.661-19.233-19.233-19.233h-7.125-23.781-2.317c10.573 0 19.233 8.66 19.233 19.233z" fill="#f6a96c" fill-rule="evenodd"/></g><g><path clip-rule="evenodd" d="m142.659 403.293h-98.714-7.154c-10.572 0-19.233 8.661-19.233 19.233v81.974h151.488v-24.303-44.753-12.919c0-10.573-8.661-19.233-19.262-19.233h-7.125z" fill="#ffbd86" fill-rule="evenodd"/></g><g><path clip-rule="evenodd" d="m116.561 403.293c10.601 0 19.262 8.661 19.262 19.233v12.919 44.753 24.302h33.223v-24.303-44.753-12.919c0-10.573-8.661-19.233-19.262-19.233h-7.125-26.098z" fill="#f6a96c" fill-rule="evenodd"/></g><g><path clip-rule="evenodd" d="m181.183 134.082h-95.933l-26.474 61.437c-.058.145-.145.29-.203.434h123.392c-.521-3.737-.782-7.56-.782-11.413z" fill="#ffbd86" fill-rule="evenodd"/></g><g><path clip-rule="evenodd" d="m145.179 134.082v50.459c0 3.852.261 7.676.782 11.413h36.004c-.521-3.737-.782-7.56-.782-11.413v-50.459z" fill="#f6a96c" fill-rule="evenodd"/></g><g><path clip-rule="evenodd" d="m181.183 72.181-10.428-64.681c-21 0-31.746 1.738-42.145 25.925l-16.713 38.757h69.286z" fill="#ffbd86" fill-rule="evenodd"/></g><g><path clip-rule="evenodd" d="m145.179 11.671v60.51h36.004l-10.428-64.681c-10.775 0-18.856.463-25.576 4.171z" fill="#f6a96c" fill-rule="evenodd"/></g><g><path clip-rule="evenodd" d="m341.245 134.082v-24.969l-79.481-25.461-91.009 25.461v24.969 50.459c0 3.852.261 7.676.782 11.413 2.375 17.64 10.225 33.601 21.724 46.143 15.612 16.974 38.002 27.663 62.739 27.663 24.765 0 47.127-10.688 62.739-27.663 13.961-15.207 22.506-35.426 22.506-57.556z" fill="#ffe5c2" fill-rule="evenodd"/></g><g><path clip-rule="evenodd" d="m304.285 134.082v50.459c0 22.13-8.545 42.348-22.506 57.556-11.615 12.629-26.967 21.782-44.259 25.635 5.967 1.332 12.136 2.028 18.48 2.028 24.765 0 47.127-10.688 62.739-27.663 11.528-12.542 19.349-28.503 21.724-46.143.521-3.737.782-7.56.782-11.413v-50.459-24.969l-36.96-14.599z" fill="#fed2a4" fill-rule="evenodd"/></g><g><path clip-rule="evenodd" d="m341.245 7.5h-54.426l-30.819 58.917-30.819-58.917h-54.426v64.681 36.932h170.49v-36.932z" fill="#ffe177" fill-rule="evenodd"/></g><g><path clip-rule="evenodd" d="m286.819 7.5h-61.638v39.857c0 10.486 8.603 19.06 19.088 19.06h23.462c10.514 0 19.088-8.574 19.088-19.06z" fill="#ee6161" fill-rule="evenodd"/></g><g><path clip-rule="evenodd" d="m304.285 72.181v36.932h36.96v-36.932-46.374-18.307h-36.96z" fill="#ffd15b" fill-rule="evenodd"/></g><g><path clip-rule="evenodd" d="m169.046 480.197h173.908v-31.95-12.803-12.919-11.325c0-7.821-1.303-15.323-3.737-22.333-33.745 62.074-109.286 67.839-170.171 71.749z" fill="#fed2a4" fill-rule="evenodd"/></g><path d="m475.584 395.802v-31.469c0-31.352-25.519-56.858-56.886-56.858-1.043 0-2.078.032-3.107.088l-5.824-30.326c17.552-4.298 39.017-15.159 50.107-33.278 6.502-10.624 11.789-28.025.511-50.876-.111-.268-.238-.526-.378-.777l-52.897-122.781c-.078-.204-.164-.404-.258-.599l-16.572-38.463c-12.216-28.413-26.674-30.463-49.035-30.463h-170.49c-22.361 0-36.819 2.05-49.032 30.457l-16.572 38.463c-.096.198-.184.401-.262.609l-52.907 122.801c-11.773 23.224-6.43 40.888.144 51.629 11.089 18.118 32.555 28.979 50.107 33.278l-5.824 30.326c-1.029-.056-2.064-.088-3.107-.088-31.351 0-56.856 25.507-56.856 56.858v31.469c-14.582.187-26.388 12.099-26.388 26.725v81.973c0 4.143 3.357 7.5 7.5 7.5h151.488c4.143 0 7.5-3.357 7.5-7.5v-16.803h59.323c4.143 0 7.5-3.357 7.5-7.5s-3.357-7.5-7.5-7.5h-59.323v-50.171-11.326c0-33.926 27.587-61.526 61.496-61.526h35.917c33.908 0 61.495 27.601 61.495 61.526v11.326 50.171h-63.465c-4.143 0-7.5 3.357-7.5 7.5s3.357 7.5 7.5 7.5h63.465v16.803c0 4.143 3.357 7.5 7.5 7.5h151.488c4.143 0 7.5-3.357 7.5-7.5v-81.974c0-14.615-11.79-26.521-26.358-26.724zm-15-31.469v31.46h-83.743v-31.46c0-20.384 14.648-37.401 33.968-41.102.05-.009.1-.012.151-.022.028-.005.055-.014.083-.02 2.484-.461 5.04-.714 7.656-.714 23.095 0 41.885 18.777 41.885 41.858zm-13.504-128.204c-11.131 18.187-38.422 28.244-53.031 28.244h-50.861l-14.967-21.733c9.048-11.218 15.542-24.577 18.583-39.187h101.812c4.906 11.993 4.405 22.968-1.536 32.676zm-31.722-109.547h-66.613v-46.9h46.407zm-66.613 57.959v-42.959h73.076l20.193 46.871h-93.358c.055-1.298.089-2.601.089-3.912zm27.757-148.148 12.188 28.289h-39.945v-49.566c13.904.564 20.24 3.793 27.757 21.277zm-42.757 65.22h-60.424c-4.143 0-7.5 3.357-7.5 7.5s3.357 7.5 7.5 7.5h60.424v67.928c0 19.954-7.567 38.17-19.976 51.946-.372.328-.705.687-.996 1.07-14.198 15.184-34.389 24.701-56.773 24.701s-42.574-9.517-56.773-24.701c-.292-.384-.625-.742-.996-1.07-12.409-13.776-19.976-31.993-19.976-51.946v-67.928h60.047c4.143 0 7.5-3.357 7.5-7.5s-3.357-7.5-7.5-7.5h-60.047v-86.613h39.426v32.357c0 14.645 11.928 26.56 26.589 26.56h23.461c14.661 0 26.589-11.915 26.589-26.56v-32.357h39.426v86.613zm-243.566 39.969h73.076v42.959c0 1.311.034 2.614.088 3.912h-93.357zm26.669-61.9h46.407v46.9h-66.613zm115.833-64.682h46.639v32.357c0 6.374-5.199 11.56-11.589 11.56h-23.461c-6.39 0-11.589-5.186-11.589-11.56zm-97.18 21.387c7.514-17.478 13.85-20.707 27.754-21.271v49.566h-39.944zm-70.581 199.742c-5.94-9.708-6.442-20.683-1.535-32.676h101.812c3.041 14.611 9.535 27.969 18.583 39.187l-14.967 21.733h-50.861c-14.61 0-41.901-10.058-53.032-28.244zm28.382 86.346c2.615 0 5.172.253 7.656.714.028.006.054.015.083.02.051.01.101.013.151.022 19.32 3.701 33.968 20.719 33.968 41.102v31.46h-83.715v-31.46c0-23.081 18.777-41.858 41.857-41.858zm68.244 174.525h-34.356v-16.803c0-4.143-3.357-7.5-7.5-7.5s-7.5 3.357-7.5 7.5v16.803h-37.776v-16.803c0-4.143-3.357-7.5-7.5-7.5s-7.5 3.357-7.5 7.5v16.803h-34.356v-74.474c0-6.47 5.264-11.733 11.733-11.733h112.993c6.485 0 11.762 5.264 11.762 11.733v57.671zm112.413-162.326h-35.917c-38.036 0-69.667 27.921-75.516 64.348-3.687-2.003-7.897-3.157-12.366-3.219v-31.469c0-25.119-16.38-46.472-39.014-53.974l5.954-31.002c.284.005.575.016.852.016h54.803c2.468 0 4.777-1.214 6.177-3.246l15.416-22.385c16.399 14.618 38.005 23.517 61.653 23.517s45.254-8.899 61.653-23.517l15.416 22.385c1.399 2.032 3.709 3.246 6.177 3.246h54.803c.277 0 .568-.011.852-.016l5.954 31.002c-22.634 7.503-39.014 28.855-39.014 53.974v31.469c-4.469.062-8.679 1.217-12.366 3.219-5.851-36.428-37.481-64.348-75.517-64.348zm212.983 162.326h-34.328v-16.803c0-4.143-3.357-7.5-7.5-7.5s-7.5 3.357-7.5 7.5v16.803h-37.804v-16.803c0-4.143-3.357-7.5-7.5-7.5s-7.5 3.357-7.5 7.5v16.803h-34.356v-16.803-57.671c0-6.47 5.276-11.733 11.762-11.733h112.993c6.47 0 11.733 5.264 11.733 11.733z"/></g></svg>