<svg id="SvgjsSvg1001" width="288" height="288" xmlns="http://www.w3.org/2000/svg" version="1.1" xmlns:xlink="http://www.w3.org/1999/xlink" xmlns:svgjs="http://svgjs.com/svgjs"><defs id="SvgjsDefs1002"></defs><g id="SvgjsG1008" transform="matrix(1,0,0,1,0,0)"><svg xmlns="http://www.w3.org/2000/svg" width="288" height="288" enable-background="new 0 0 485.213 485.213" viewBox="0 0 485.213 485.213"><path fill="#eeeeee" d="M363.909 181.955C363.909 81.473 282.44 0 181.956 0 81.474 0 .001 81.473.001 181.955s81.473 181.951 181.955 181.951C282.44 363.906 363.909 282.437 363.909 181.955zM181.956 318.416c-75.252 0-136.465-61.208-136.465-136.46 0-75.252 61.213-136.465 136.465-136.465 75.25 0 136.468 61.213 136.468 136.465C318.424 257.208 257.206 318.416 181.956 318.416zM471.882 407.567L360.567 296.243c-16.586 25.795-38.536 47.734-64.331 64.321l111.324 111.324c17.772 17.768 46.587 17.768 64.321 0C489.654 454.149 489.654 425.334 471.882 407.567z" class="colorFFF svgShape"></path></svg></g></svg>