<svg xmlns="http://www.w3.org/2000/svg" viewBox="0 0 512 512"><path fill="#ebf0fa" d="M135.876 280.962L10.105 225.93c-14.174-6.197-13.215-26.621 1.481-31.456L489.845 36.811c12.512-4.121 24.705 7.049 21.691 19.881l-95.571 406.351c-2.854 12.14-17.442 17.091-27.09 9.19l-112.3-91.887-140.699-99.384z"/><path fill="#bec3d2" d="M396.465 124.56L135.876 280.962l31.885 147.899c2.86 13.269 18.5 19.117 29.364 10.981l79.451-59.497-65.372-53.499 193.495-191.693c5.673-5.621-1.385-14.704-8.234-10.593z"/><path fill="#afb4c8" d="M178.275 441.894c5.858 2.648 13.037 2.302 18.85-2.052l79.451-59.497-32.686-26.749-32.686-26.749-32.929 115.047z"/></svg>